<svg xmlns="http://www.w3.org/2000/svg" width="30" height="30" fill="#D1D5DB" viewBox="0 0 24 24">
  <path fill="#D1D5DB" d="M22.444 24H1.556a.375.375 0 0 1-.375-.375V.375c0-.207.168-.375.375-.375h20.888c.207 0 .375.168.375.375v23.25a.375.375 0 0 1-.375.375Zm-5.888-.75h5.513V.75h-7.125v22.5h1.612Zm-2.875 0h.513V.75h-.513v22.5Zm-2.612 0h1.862V.75h-1.862v22.5Zm-1.263 0h.513V.75h-.513v22.5Zm-4.688 0h3.938V.75H1.93v22.5h3.187Zm14.859-9.199a.375.375 0 0 1-.188-.05l-2.903-1.676a.375.375 0 0 1 0-.65L19.79 10a.375.375 0 0 1 .562.325v3.352a.375.375 0 0 1-.375.375ZM17.823 12l1.779 1.027v-2.054L17.823 12Zm-13.8 2.051a.375.375 0 0 1-.375-.375v-3.352a.375.375 0 0 1 .562-.325l2.904 1.676a.375.375 0 0 1 0 .65L4.21 14a.375.375 0 0 1-.187.05Zm.375-3.078v2.054L6.176 12l-1.778-1.027Z"/>
</svg>
