<svg xmlns="http://www.w3.org/2000/svg" width="30" height="30" fill="#D1D5DB" viewBox="0 0 24 24">
  <g clip-path="url(#clip0_2019_35021)"><path d="M19.9485 1.33325C19.703 1.33325 19.5555 1.5283 19.5555 1.77374V5.77771H16.4148C16.1694 5.77771 16 5.99488 16 6.24031V9.77769H12.3929C12.1475 9.77769 12 9.97011 12 10.2155V13.7777H8.41744C8.172 13.7777 8.00002 13.9729 8.00002 14.2184V17.7777H4.39289C4.14745 17.7777 3.99998 17.9949 3.99998 18.2403V21.7777H0V22.6666H4.39289C4.63833 22.6666 4.88887 22.4857 4.88887 22.2403V18.6665H8.41739C8.66283 18.6665 8.88886 18.4857 8.88886 18.2403V14.6665H12.3929C12.6383 14.6665 12.8888 14.4638 12.8888 14.2183V10.6665H16.4148C16.6602 10.6665 16.8888 10.461 16.8888 10.2155V6.6665H19.9484C20.1938 6.6665 20.4444 6.48566 20.4444 6.24022V2.22214H24V1.33325H19.9485Z" fill="#BFBFBF"></path><path d="M23.2952 9.13071C23.1215 8.95709 22.8532 8.9561 22.6796 9.12973L19.9085 11.9266V10.3329C19.9085 10.0874 19.7095 9.8884 19.464 9.8884C19.2185 9.8884 19.0196 10.0874 19.0196 10.3329V12.9995C19.0196 13.0287 18.9969 13.0578 19.0026 13.0866C19.0052 13.0998 18.9972 13.112 19.001 13.1248C19.0055 13.1398 19.0025 13.155 19.0085 13.1695C19.0148 13.1848 19.0203 13.1988 19.0282 13.2131C19.0342 13.224 19.0374 13.2354 19.0444 13.2459C19.077 13.2947 19.1181 13.3367 19.167 13.3692C19.1774 13.3762 19.1885 13.381 19.1994 13.3871C19.2138 13.395 19.2275 13.4037 19.2428 13.4101C19.2573 13.416 19.2724 13.4195 19.2874 13.4239C19.3002 13.4277 19.3123 13.4346 19.3256 13.4373C19.3542 13.443 19.3834 13.448 19.4125 13.448H22.0792C22.3246 13.448 22.5237 13.249 22.5237 13.0036C22.5237 12.7581 22.3247 12.5591 22.0792 12.5591H20.4854L23.2823 9.76029C23.4559 9.58662 23.4687 9.30434 23.2952 9.13071Z" fill="#BFBFBF"></path><path d="M0.123774 17.3173C0.297399 17.4909 0.565711 17.4919 0.739336 17.3183L3.51045 14.5214L3.51045 16.1151C3.51045 16.3606 3.70943 16.5596 3.95492 16.5596C4.2004 16.5596 4.39934 16.3606 4.39934 16.1151L4.39934 13.4485C4.39934 13.4193 4.42207 13.3902 4.41631 13.3614C4.41373 13.3482 4.4217 13.336 4.4179 13.3232C4.41349 13.3082 4.41649 13.293 4.41045 13.2785C4.40412 13.2632 4.39868 13.2492 4.39071 13.2349C4.38471 13.224 4.38153 13.2126 4.37454 13.2021C4.34192 13.1533 4.30081 13.1113 4.25196 13.0788C4.24151 13.0718 4.23049 13.067 4.21957 13.0609C4.20518 13.053 4.19149 13.0443 4.17617 13.0379C4.16163 13.032 4.14654 13.0285 4.13159 13.0241C4.11879 13.0203 4.10665 13.0134 4.09338 13.0107C4.0647 13.005 4.03559 13 4.00643 13L1.33976 13C1.09432 13 0.89529 13.199 0.89529 13.4444C0.89529 13.6899 1.09428 13.8889 1.33976 13.8889L2.93351 13.8889L0.136617 16.6877C-0.0369608 16.8614 -0.0498039 17.1437 0.123774 17.3173Z" fill="#BFBFBF"></path></g><defs><clipPath id="clip0_2019_35021"><rect width="24" height="24" fill="white"></rect></clipPath></defs>
</svg>