<svg xmlns="http://www.w3.org/2000/svg" id="Capa_2" data-name="Capa 2" viewBox="0 0 850.08 142.23"><defs><style>      .cls-1 {        fill: #f01c24;      }      .cls-1, .cls-2, .cls-3 {        stroke-width: 0px;      }      .cls-2 {        fill: #fc7a1c;      }      .cls-3 {        fill: #004aad;      }    </style></defs><g id="Capa_3" data-name="Capa 3"><g><path class="cls-3" d="m816.6,58.62c-6.6,8.07-17.54,12.37-30.76,12.37h-4.2c-13.33,0-21.25-4.3-22.24-12.37h-23.83c-2.82,20.68,13.72,31.71,39.41,31.71h4.99c25.21,0,49.09-11.06,60.49-31.71h-23.87Z"></path><path class="cls-1" d="m824.73,40.55l-3.18,9.18c-1.15,3.34-2.83,6.31-4.95,8.9h23.87c1.48-2.68,2.75-5.5,3.79-8.5l3.41-9.84c1.43-4.13,2.2-7.97,2.37-11.5h-24.86c1.23,3.18,1.15,7.1-.46,11.77Z"></path><path class="cls-1" d="m760.62,49.73l3.16-9.18c1.61-4.67,4.22-8.59,7.63-11.77h-24.78c-2.29,3.55-4.18,7.4-5.6,11.56l-3.4,9.84c-1.02,2.97-1.69,5.78-2.05,8.44h23.83c-.32-2.59.06-5.55,1.21-8.9Z"></path><path class="cls-2" d="m799.49,19.28h4.21c11.55,0,19.07,3.29,21.48,9.5h24.86c.91-18.67-14.92-28.78-38.9-28.78l-4.99.06c-24.4,0-47.5,10.1-59.52,28.72h24.78c6.66-6.21,16.43-9.5,28.07-9.5Z"></path></g><g><path class="cls-2" d="m659.01,19.42h29.45c11.88,0,17.54,3.13,18.56,9.36h23.93c2.29-19.39-11.18-27.6-36.25-27.6h-51.8l-9.44,27.6h22.34l3.2-9.36Z"></path><path class="cls-1" d="m705.34,40.28l-3.5,10.24c-1.06,3.06-2.32,5.74-3.82,8.1h23.3c1.24-2.53,2.36-5.22,3.35-8.1l3.52-10.24c1.45-4.21,2.35-8.03,2.76-11.5h-23.93c.51,3.08-.1,6.9-1.68,11.5Z"></path><path class="cls-3" d="m698.01,58.62c-5.25,8.25-13.52,12.24-27.21,12.24h-29.39l4.19-12.24h-22.34l-10.42,30.47h51.72c26.87,0,46.25-9.03,56.76-30.47h-23.3Z"></path><polygon class="cls-1" points="655.81 28.78 633.46 28.78 623.25 58.62 645.6 58.62 655.81 28.78"></polygon></g><g><polygon class="cls-3" points="488.05 89.09 509.31 89.09 533.41 58.62 511.97 58.62 488.05 89.09"></polygon><path class="cls-1" d="m593.55,28.78h-22.41l2.67,23.57h-8.56c-6.93,0-14.25,2.28-20.95,6.27h52.43l-3.18-29.84Z"></path><polygon class="cls-1" points="535.4 28.78 511.97 58.62 533.41 58.62 557.02 28.78 535.4 28.78"></polygon><polygon class="cls-2" points="569.37 13.17 571.14 28.78 593.55 28.78 590.6 1.18 557.07 1.18 535.4 28.78 557.02 28.78 569.37 13.17"></polygon><path class="cls-3" d="m544.29,58.62c-4.86,2.9-9.4,6.69-13.2,11.19h44.5l2.08,19.28h22.3l-3.25-30.47h-52.43Z"></path></g><g><polygon class="cls-3" points="377.47 89.09 398.46 89.09 408.76 58.62 387.75 58.62 377.47 89.09"></polygon><polygon class="cls-2" points="506.12 1.18 485.08 1.18 475.73 28.78 496.75 28.78 506.12 1.18"></polygon><polygon class="cls-1" points="486.63 58.62 496.75 28.78 475.73 28.78 465.62 58.62 486.63 58.62"></polygon><polygon class="cls-3" points="465.62 58.62 463.74 64.16 461.35 58.62 433.69 58.62 446.76 89.09 476.28 89.09 486.63 58.62 465.62 58.62"></polygon><polygon class="cls-1" points="448.48 28.78 420.89 28.78 433.69 58.62 461.35 58.62 448.48 28.78"></polygon><polygon class="cls-2" points="419.74 26.11 420.89 28.78 448.48 28.78 436.58 1.18 407.14 1.18 397.82 28.78 418.84 28.78 419.74 26.11"></polygon><polygon class="cls-1" points="397.82 28.78 387.75 58.62 408.76 58.62 418.84 28.78 397.82 28.78"></polygon></g><g><polygon class="cls-3" points="266.41 89.09 288.84 89.09 299.08 58.62 276.62 58.62 266.41 89.09"></polygon><path class="cls-1" d="m354.71,55.24c11.35-3.75,20.29-12.58,24.19-23.88l.87-2.58h-22.6l-.56,1.66c-2.33,6.96-8.04,9.84-16.58,9.84h-34.8l3.86-11.5h-22.48l-10,29.84h22.46l.34-1.02h30.72l.26,1.02h25.15l-.85-3.38Z"></path><polygon class="cls-3" points="330.41 58.62 338.32 89.09 363.25 89.09 355.56 58.62 330.41 58.62"></polygon><path class="cls-2" d="m312.59,18.37h34.82c8.48,0,12.22,3.15,9.96,9.84l-.19.57h22.6l.5-1.49c5.35-15.87-2.63-26.11-21.96-26.11h-62.45l-9.25,27.6h22.48l3.5-10.41Z"></path></g><g><path class="cls-2" d="m217.54,19.28h4.2c11.56,0,19.13,3.29,21.61,9.5h24.82c.73-18.67-15.21-28.78-39.21-28.78l-4.94.06c-24.39,0-47.33,10.1-59.17,28.72h24.71c6.59-6.21,16.32-9.5,27.98-9.5Z"></path><path class="cls-3" d="m235.09,58.62c-6.51,8.07-17.4,12.37-30.62,12.37h-4.2c-13.33,0-21.29-4.3-22.38-12.37h-23.77c-2.58,20.68,14.08,31.71,39.77,31.71h4.92c25.21,0,48.95-11.06,60.11-31.71h-23.83Z"></path><path class="cls-1" d="m243.02,40.55l-3.07,9.18c-1.12,3.34-2.76,6.31-4.85,8.9h23.83c1.44-2.68,2.69-5.5,3.69-8.5l3.3-9.84c1.39-4.13,2.12-7.97,2.26-11.5h-24.82c1.27,3.18,1.23,7.1-.33,11.77Z"></path><path class="cls-1" d="m179,49.73l3.07-9.18c1.55-4.67,4.12-8.59,7.49-11.77h-24.71c-2.26,3.55-4.11,7.4-5.5,11.56l-3.28,9.84c-.99,2.97-1.62,5.78-1.95,8.44h23.77c-.35-2.59,0-5.55,1.1-8.9Z"></path></g><g><polygon class="cls-2" points="15.06 .68 3.37 28.78 41.49 28.78 53.05 .68 15.06 .68"></polygon><polygon class="cls-1" points="0 36.89 38.16 36.89 41.49 28.78 3.37 28.78 0 36.89"></polygon><path class="cls-2" d="m157.53.68l-36.81.06c-25.78,0-48.46,10.3-63.57,28.04h89.15L157.53.68Z"></path><path class="cls-3" d="m40.53,58.62l-13.62,31.71h42.12l12.83-30.13c.23-.54.49-1.06.74-1.58h-42.07Z"></path><path class="cls-1" d="m118.66,36.89h24.38l3.24-8.1H57.14c-5.07,5.95-9.3,12.74-12.5,20.26l-4.11,9.58h42.07c6.46-13.51,19.99-21.74,36.07-21.74Z"></path></g></g><g id="Capa_4" data-name="Capa 4"><g><path class="cls-3" d="m25.13,140.87v-38.13h24.47c3.11,0,5.78,1.12,7.98,3.31,2.2,2.19,3.3,4.86,3.3,8.02,0,1.31-.29,2.63-.86,3.99-.57,1.31-1.29,2.29-2.1,2.82,1.34.63,2.49,1.8,3.39,3.5.91,1.7,1.39,3.4,1.39,5.15,0,3.16-1.1,5.84-3.3,8.02s-4.87,3.31-7.98,3.31h-26.28Zm7.31-22.42h16.87c2.44,0,4.25-2.04,4.25-4.38s-1.82-4.43-4.25-4.43h-16.87v8.8Zm0,15.51h18.64c2.34,0,4.3-2.09,4.3-4.43s-1.86-4.38-4.3-4.38h-18.64v8.8Z"></path><path class="cls-3" d="m103.8,122.05v-19.31h7.31v19.31c0,3.26,1.1,6.08,3.35,8.41,2.25,2.29,4.97,3.45,8.12,3.45s5.83-1.17,8.08-3.45c2.25-2.33,3.39-5.15,3.39-8.41v-19.31h7.31v19.31c0,5.25-1.82,9.73-5.5,13.47-3.68,3.75-8.08,5.59-13.29,5.59s-9.61-1.85-13.29-5.59c-3.68-3.74-5.5-8.22-5.5-13.47Z"></path><path class="cls-3" d="m200.83,141.55c-3.82,0-7.5-.73-11.09-2.24-3.58-1.51-5.93-3.5-7.03-5.98l5.88-3.65c.96,1.41,2.63,2.58,4.97,3.45,2.34.88,4.83,1.31,7.46,1.31,3.63,0,6.45-.49,8.51-1.46,1.58-.83,2.39-1.9,2.34-3.26,0-1.41-.76-2.43-2.29-3.06-1.1-.49-3.87-1.02-8.22-1.56-5.54-.58-9.27-1.26-11.23-2.04-4.35-1.85-6.4-4.86-6.26-9.04,0-4.33,2.15-7.54,6.45-9.68,3.11-1.51,7.03-2.24,11.8-2.24,8.46,0,13.76,2.67,15.91,7.98l-6.31,3.36c-1.39-3.06-4.78-4.62-10.08-4.62-2.58,0-4.97.39-7.17,1.17s-3.35,1.95-3.39,3.45c-.05,2.77,1.96,3.79,6.69,4.57l3.78.44c.57.05,1.62.15,3.2.34,3.68.49,6.36,1.07,8.03,1.7,4.35,1.75,6.4,4.81,6.26,9.14-.05.15-.05.29-.05.54-.1,2.58-1.05,4.77-2.82,6.52-1.77,1.75-3.92,3.02-6.55,3.75-2.63.73-5.54,1.12-8.79,1.12Z"></path><path class="cls-3" d="m319.61,135.47c-4.11-3.79-6.17-8.37-6.17-13.67s2.05-9.82,6.17-13.67c4.01-3.7,8.84-5.54,14.53-5.54,3.58,0,6.98.83,10.08,2.43,3.15,1.6,5.69,3.84,7.6,6.71l-5.97,4.28c-2.44-3.89-6.93-6.18-11.71-6.18-3.68,0-6.83,1.17-9.46,3.5-2.63,2.33-3.92,5.15-3.92,8.46s1.29,6.13,3.92,8.46c2.63,2.33,5.78,3.5,9.46,3.5,4.83,0,9.32-2.33,11.8-6.27l5.97,4.18c-1.86,2.92-4.4,5.2-7.6,6.86-3.2,1.65-6.6,2.48-10.18,2.48-5.69,0-10.51-1.85-14.53-5.54Z"></path><path class="cls-3" d="m411.38,141.02c-11.09.24-20.93-8.66-20.69-19.21-.24-10.6,9.7-19.5,20.69-19.21,5.69,0,10.56,1.85,14.62,5.59,4.06,3.75,6.12,8.27,6.12,13.62.24,10.6-9.75,19.5-20.74,19.21Zm-9.46-10.75c2.63,2.33,5.78,3.5,9.46,3.5s6.83-1.17,9.46-3.5c2.63-2.33,3.92-5.15,3.92-8.46s-1.29-6.13-3.92-8.46c-2.63-2.33-5.78-3.5-9.46-3.5s-6.83,1.17-9.46,3.5c-2.63,2.33-3.92,5.15-3.92,8.46s1.29,6.13,3.92,8.46Z"></path><path class="cls-3" d="m478.96,140.82l-7.17.05,5.07-39.49,20.17,24.61,20.21-24.61,5.02,39.49h-7.17l-2.87-22.56-15.2,18.29-15.2-18.29-2.87,22.52Z"></path><path class="cls-3" d="m563.85,140.87v-38.13h25.33c3.39,0,6.26,1.22,8.65,3.65,2.39,2.38,3.58,5.3,3.58,8.66s-1.19,6.27-3.58,8.71c-2.39,2.38-5.26,3.6-8.65,3.6h-18.02v13.52h-7.31Zm7.31-20.52h17.35c3.25,0,5.59-2.38,5.59-5.35s-2.34-5.3-5.59-5.3h-17.35v10.65Z"></path><path class="cls-3" d="m649.22,134.11l-3.49,6.76h-8.12l19.74-39.78,20.45,39.78h-8.17l-3.63-6.76h-16.77Zm8.27-18.38l-5.74,12.3h11.57l-5.83-12.3Z"></path><path class="cls-3" d="m723.69,140.87h-7.31v-39.34l30.3,25.68v-24.46h7.31v39.49l-30.3-25.58v24.22Z"></path><path class="cls-3" d="m809.15,140.87v-15.17l-16.77-23h9.13l11.33,15.61,11.33-15.61h9.08l-16.77,23v15.17h-7.31Z"></path></g></g></svg>